<?xml version="1.0" encoding="UTF-8" standalone="no"?>
<!-- Created with Inkscape (http://www.inkscape.org/) -->

<svg
   xmlns:dc="http://purl.org/dc/elements/1.1/"
   xmlns:cc="http://creativecommons.org/ns#"
   xmlns:rdf="http://www.w3.org/1999/02/22-rdf-syntax-ns#"
   xmlns:svg="http://www.w3.org/2000/svg"
   xmlns="http://www.w3.org/2000/svg"
   xmlns:sodipodi="http://sodipodi.sourceforge.net/DTD/sodipodi-0.dtd"
   xmlns:inkscape="http://www.inkscape.org/namespaces/inkscape"
   width="31.052069mm"
   height="31.082443mm"
   viewBox="0 0 31.052069 31.082443"
   version="1.1"
   id="svg8"
   inkscape:version="0.92.3 (2405546, 2018-03-11)"
   sodipodi:docname="VMwareHost.svg">
  <defs
     id="defs2" />
  <sodipodi:namedview
     id="base"
     pagecolor="#ffffff"
     bordercolor="#666666"
     borderopacity="1.0"
     inkscape:pageopacity="0.0"
     inkscape:pageshadow="2"
     inkscape:zoom="0.35"
     inkscape:cx="185.14357"
     inkscape:cy="-454.08562"
     inkscape:document-units="mm"
     inkscape:current-layer="layer1"
     showgrid="false"
     inkscape:window-width="1920"
     inkscape:window-height="1017"
     inkscape:window-x="1042"
     inkscape:window-y="397"
     inkscape:window-maximized="1"
     showborder="true" />
  <metadata
     id="metadata5">
    <rdf:RDF>
      <cc:Work
         rdf:about="">
        <dc:format>image/svg+xml</dc:format>
        <dc:type
           rdf:resource="http://purl.org/dc/dcmitype/StillImage" />
        <dc:title></dc:title>
      </cc:Work>
    </rdf:RDF>
  </metadata>
  <g
     inkscape:label="Layer 1"
     inkscape:groupmode="layer"
     id="layer1"
     transform="translate(-76.65225,-97.069486)">
    <g
       id="g3724"
       transform="translate(-6.8035716,-4.5357141)">
      <path
         style="fill:#fdcea7;stroke-width:0.26458332"
         d="m 85.593747,132.25372 c -0.477573,-0.23539 -1.132417,-0.79823 -1.455209,-1.25075 -0.578154,-0.81052 -0.587945,-0.9725 -0.657512,-10.87694 -0.06443,-9.17343 -0.02967,-10.13482 0.396875,-10.97493 0.637807,-1.25622 2.000767,-2.12096 3.350891,-2.126 1.459205,-0.005 1.646894,-0.17946 1.811773,-1.67981 0.150702,-1.37134 0.706853,-2.31192 1.888916,-3.19458 0.707618,-0.52838 1.043586,-0.54551 10.699279,-0.54551 9.54985,0 10.00723,0.0226 10.8854,0.53853 0.50417,0.29619 1.15901,0.95103 1.45521,1.45521 0.5159,0.87816 0.53852,1.33554 0.53852,10.88529 0,9.65556 -0.0171,9.99157 -0.54551,10.69928 -0.89555,1.19949 -1.81402,1.72842 -3.32066,1.9123 l -1.42549,0.17397 -0.13407,1.50432 c -0.15486,1.73781 -0.79399,2.77307 -2.1337,3.45621 -0.81596,0.41607 -1.89211,0.46204 -10.696816,0.45699 -8.476121,-0.005 -9.906084,-0.063 -10.657897,-0.43358 z m 17.404773,-14.33564 c 0,-4.70175 0.0648,-4.62437 -3.99074,-4.76318 -1.586374,-0.0543 -3.182898,-0.0238 -3.547831,0.0678 l -0.663514,0.16653 v 3.3226 c 0,3.31957 7.15e-4,3.32331 0.773398,4.096 0.772816,0.77282 0.775897,0.7734 4.101041,0.7734 h 3.327646 z"
         id="path3738"
         inkscape:connector-curvature="0" />
      <path
         style="fill:#93b3d0;stroke-width:0.26458332"
         d="m 85.81941,131.96572 c -0.498978,-0.25443 -1.153822,-0.79858 -1.455208,-1.20921 -0.526505,-0.71736 -0.551179,-1.12164 -0.629756,-10.31875 -0.05192,-6.0766 0.01839,-9.91433 0.192532,-10.50917 0.150873,-0.51537 0.634038,-1.28167 1.0737,-1.70289 0.65224,-0.62489 1.086194,-0.78661 2.3575,-0.87857 l 1.558113,-0.1127 0.112942,-1.5614 c 0.120101,-1.66038 0.601343,-2.55241 1.900248,-3.52232 0.707618,-0.52838 1.043586,-0.54551 10.699279,-0.54551 9.54985,0 10.00723,0.0226 10.8854,0.53853 0.50417,0.29619 1.15901,0.95103 1.45521,1.45521 0.5159,0.87816 0.53852,1.33554 0.53852,10.88529 0,9.65556 -0.0171,9.99157 -0.54551,10.69928 -0.97524,1.30622 -1.85998,1.78011 -3.55197,1.90249 l -1.59106,0.11509 v 1.25199 c 0,1.52707 -0.79748,2.84721 -2.12194,3.51264 -0.82562,0.41481 -1.90503,0.46261 -10.445766,0.46261 -8.545895,0 -9.618257,-0.0476 -10.432234,-0.46261 z m 17.70827,-13.70491 c 0,-5.13271 -0.27942,-5.41082 -5.436403,-5.41082 h -3.294842 v 3.59223 3.59222 l 0.773398,0.7734 0.773397,0.7734 h 3.592228 3.592222 z"
         id="path3736"
         inkscape:connector-curvature="0" />
      <path
         style="fill:#f4a05b;stroke-width:0.26458332"
         d="m 85.81941,131.96572 c -0.498978,-0.25443 -1.153822,-0.79858 -1.455208,-1.20921 -0.526505,-0.71736 -0.551179,-1.12164 -0.629756,-10.31875 -0.05192,-6.0766 0.01839,-9.91433 0.192532,-10.50917 0.424428,-1.44981 1.59485,-2.40876 3.110285,-2.54834 2.476671,-0.2281 2.467396,-0.22204 2.468495,-1.61291 6.35e-4,-0.78831 0.198676,-1.57597 0.53496,-2.12754 0.967389,-1.58671 1.335876,-1.63773 11.828952,-1.63773 10.59419,0 10.77091,0.0281 11.75788,1.8684 0.44244,0.82497 0.48347,1.70521 0.48347,10.37295 0,10.32859 -0.0615,10.81437 -1.48729,11.74901 -0.40575,0.26598 -1.39796,0.54313 -2.20491,0.61589 l -1.46718,0.13229 -0.13229,1.63462 c -0.15191,1.87705 -0.75117,2.88462 -2.13547,3.59049 -0.81398,0.41506 -1.88634,0.46261 -10.432236,0.46261 -8.545895,0 -9.618257,-0.0476 -10.432234,-0.46261 z m 17.11296,-10.02208 c 0.57816,-0.15494 0.59531,-0.25741 0.59531,-3.55581 0,-5.26108 -0.26949,-5.54011 -5.344668,-5.53379 -1.789857,0.002 -3.415459,0.10618 -3.612448,0.23101 -0.279244,0.17695 -0.337544,0.98034 -0.264584,3.64608 0.105609,3.85863 0.400689,4.65616 1.880894,5.08362 0.96902,0.27984 5.835266,0.37282 6.745496,0.12889 z"
         id="path3734"
         inkscape:connector-curvature="0" />
      <path
         style="fill:#f4872e;stroke-width:0.26458332"
         d="m 85.816918,131.68111 c -1.840317,-0.98697 -1.868399,-1.1637 -1.868399,-11.75789 0,-10.49307 0.05102,-10.86156 1.637724,-11.82895 0.577794,-0.35227 1.338857,-0.53431 2.236573,-0.53496 1.533922,-10e-4 1.681355,-0.17114 1.682942,-1.94086 5.82e-4,-0.63889 0.22562,-1.47127 0.53496,-1.97865 0.967389,-1.58671 1.335876,-1.63773 11.828952,-1.63773 8.66774,0 9.54798,0.041 10.37295,0.48347 1.84031,0.98697 1.8684,1.16369 1.8684,11.75788 0,10.49308 -0.051,10.86156 -1.63773,11.82895 -0.53855,0.32835 -1.3394,0.53435 -2.07967,0.53496 -1.51066,10e-4 -1.8386,0.32918 -1.83984,1.83985 -6.1e-4,0.74027 -0.20661,1.54111 -0.53496,2.07967 -0.96739,1.5867 -1.33588,1.63772 -11.828952,1.63772 -8.667743,0 -9.547977,-0.041 -10.37295,-0.48346 z m 17.316652,-9.83634 0.69866,-0.26563 -0.0861,-3.69786 c -0.0847,-3.63682 -0.0982,-3.70995 -0.81899,-4.43072 -0.71798,-0.71799 -0.80554,-0.73463 -4.313495,-0.81977 -2.626065,-0.0637 -3.689285,0.003 -3.988177,0.25132 -0.338122,0.28062 -0.392067,0.92844 -0.316708,3.8033 0.102463,3.90882 0.392245,4.70023 1.878144,5.12934 1.16793,0.33728 6.082666,0.35853 6.946696,0.03 z"
         id="path3732"
         inkscape:connector-curvature="0" />
      <path
         style="fill:#5686b4;stroke-width:0.26458332"
         d="m 85.766949,131.45451 c -1.549903,-0.96191 -1.553937,-0.99213 -1.552857,-11.63389 9.32e-4,-9.18635 0.03064,-9.79739 0.515008,-10.59177 0.917244,-1.50431 0.923868,-1.50525 11.25796,-1.60827 8.7936,-0.0877 9.59466,-0.0581 10.43223,0.38442 1.87322,0.98977 1.9931,1.3897 2.08984,6.97182 l 0.0866,4.99997 -0.66993,0.66993 c -0.56644,0.56644 -0.91266,0.66994 -2.24115,0.66994 -1.18868,0 -1.61032,-0.1019 -1.73182,-0.41852 -0.0883,-0.23018 -0.1606,-1.82147 -0.1606,-3.53619 0,-4.9697 -0.40905,-5.21204 -8.307158,-4.9216 -5.341165,0.19642 -5.883478,0.33193 -6.468731,1.61642 -0.195231,0.42849 -0.305362,2.41694 -0.305362,5.51342 0,4.59947 0.03028,4.88814 0.601609,5.73594 0.330884,0.491 1.003335,1.16345 1.494335,1.49433 0.881408,0.59398 0.997906,0.60161 9.187974,0.60161 h 8.295243 v 1.07147 c 0,0.58931 -0.1806,1.42074 -0.40135,1.84761 -0.80289,1.55262 -1.00301,1.57953 -11.690193,1.5718 -8.532405,-0.006 -9.822544,-0.0604 -10.431688,-0.43844 z m 5.27859,-4.78757 c -0.389503,-0.25688 -0.984816,-0.81836 -1.322917,-1.24773 -0.587474,-0.74607 -0.61836,-1.00701 -0.696641,-5.88578 l -0.08191,-5.10511 0.789164,-0.78917 c 0.732088,-0.73208 0.929375,-0.7892 2.727747,-0.78968 l 1.938581,-5.2e-4 -0.08182,3.02289 c -0.15283,5.64633 0.254453,6.11984 5.228812,6.07906 3.980775,-0.0326 7.600325,-0.3961 8.401515,-0.84365 0.81694,-0.45636 0.93872,-1.44351 0.82899,-6.72008 -0.10339,-4.97222 -0.23067,-5.44028 -1.76203,-6.47973 -0.64264,-0.43621 -1.50486,-0.48887 -9.184357,-0.56085 l -8.475139,-0.0794 0.146071,-1.5278 c 0.08034,-0.84029 0.361304,-1.85628 0.624366,-2.25777 0.928512,-1.41709 1.424056,-1.47952 11.743699,-1.47952 8.66774,0 9.54798,0.041 10.37295,0.48347 1.84031,0.98697 1.8684,1.16369 1.8684,11.75788 0,10.49308 -0.051,10.86156 -1.63773,11.82895 -0.54878,0.33459 -1.33927,0.53434 -2.11697,0.53496 -0.68263,5.6e-4 -1.31474,0.12005 -1.40468,0.26558 -0.10357,0.16758 -3.28607,0.26394 -8.68072,0.26284 -7.694021,-0.002 -8.585635,-0.0469 -9.225378,-0.46881 z"
         id="path3730"
         inkscape:connector-curvature="0" />
      <path
         style="fill:#fc7e15;stroke-width:0.26458332"
         d="m 85.766949,131.45451 c -1.549903,-0.96191 -1.553937,-0.99213 -1.552857,-11.63389 9.32e-4,-9.18635 0.03064,-9.79739 0.515008,-10.59177 0.917244,-1.50431 0.923868,-1.50525 11.25796,-1.60827 8.7936,-0.0877 9.59466,-0.0581 10.43223,0.38442 1.87322,0.98977 1.9931,1.3897 2.08984,6.97182 l 0.0866,4.99997 -0.66993,0.66993 c -0.56644,0.56644 -0.91266,0.66994 -2.24115,0.66994 -1.18868,0 -1.61032,-0.1019 -1.73182,-0.41852 -0.0883,-0.23018 -0.1606,-1.82147 -0.1606,-3.53619 0,-4.9697 -0.40905,-5.21204 -8.307158,-4.9216 -5.341165,0.19642 -5.883478,0.33193 -6.468731,1.61642 -0.195231,0.42849 -0.305362,2.41694 -0.305362,5.51342 0,4.59947 0.03028,4.88814 0.601609,5.73594 0.330884,0.491 1.003335,1.16345 1.494335,1.49433 0.881408,0.59398 0.997906,0.60161 9.187974,0.60161 h 8.295243 v 1.07147 c 0,0.58931 -0.1806,1.42074 -0.40135,1.84761 -0.80289,1.55262 -1.00301,1.57953 -11.690193,1.5718 -8.532405,-0.006 -9.822544,-0.0604 -10.431688,-0.43844 z m 5.27859,-4.78757 c -0.389503,-0.25688 -0.984816,-0.81836 -1.322917,-1.24773 -0.587474,-0.74607 -0.61836,-1.00701 -0.696641,-5.88578 l -0.08191,-5.10511 0.789164,-0.78917 c 0.750612,-0.75061 0.890334,-0.78721 2.860038,-0.74923 l 2.070874,0.0399 -2.036276,0.17075 c -3.187957,0.26733 -3.123099,0.13929 -3.123099,6.16572 0,7.7773 -0.510204,7.42074 10.547278,7.37102 5.01907,-0.0226 8.25698,0.0642 8.50272,0.2278 0.26836,0.17868 -2.38754,0.26499 -8.20208,0.26655 -7.776335,0.002 -8.666709,-0.0424 -9.307148,-0.46475 z m 14.334231,-5.06562 c 2.43275,-0.19231 3.09944,-0.53891 3.32238,-1.72726 0.0936,-0.49885 0.1273,-2.96795 0.0749,-5.48689 -0.10339,-4.97222 -0.23067,-5.44028 -1.76203,-6.47973 -0.63796,-0.43304 -1.5732,-0.49573 -9.308178,-0.62398 l -8.598958,-0.14257 8.625976,-0.0559 c 8.57228,-0.0555 8.63157,-0.0521 9.525,0.54472 1.66003,1.10898 1.82419,1.79989 1.82465,7.67967 5.3e-4,5.20833 -0.003,5.24117 -0.64902,5.88698 -0.59408,0.59409 -0.83648,0.6457 -2.84427,0.60561 l -2.19484,-0.0438 z"
         id="path3728"
         inkscape:connector-curvature="0" />
      <path
         style="fill:#a58165;stroke-width:0.26458332"
         d="m 91.045539,126.66694 c -0.389503,-0.25688 -0.984816,-0.81836 -1.322917,-1.24773 -0.587474,-0.74607 -0.61836,-1.00701 -0.696641,-5.88578 l -0.08191,-5.10511 0.789164,-0.78917 c 0.750612,-0.75061 0.890334,-0.78721 2.860038,-0.74923 l 2.070874,0.0399 -2.036276,0.17075 c -3.187957,0.26733 -3.123099,0.13929 -3.123099,6.16572 0,7.7773 -0.510204,7.42074 10.547278,7.37102 5.01907,-0.0226 8.25698,0.0642 8.50272,0.2278 0.26836,0.17868 -2.38754,0.26499 -8.20208,0.26655 -7.776335,0.002 -8.666709,-0.0424 -9.307148,-0.46475 z m 14.334231,-5.06562 c 2.43275,-0.19231 3.09944,-0.53891 3.32238,-1.72726 0.0936,-0.49885 0.1273,-2.96795 0.0749,-5.48689 -0.10339,-4.97222 -0.23067,-5.44028 -1.76203,-6.47973 -0.63796,-0.43304 -1.5732,-0.49573 -9.308178,-0.62398 l -8.598958,-0.14257 8.625976,-0.0559 c 8.57228,-0.0555 8.63157,-0.0521 9.525,0.54472 1.66003,1.10898 1.82419,1.79989 1.82465,7.67967 5.3e-4,5.20833 -0.003,5.24117 -0.64902,5.88698 -0.59408,0.59409 -0.83648,0.6457 -2.84427,0.60561 l -2.19484,-0.0438 z"
         id="path3726"
         inkscape:connector-curvature="0" />
    </g>
  </g>
</svg>
